<?xml version="1.0" encoding="utf-8"?>
<!-- Generator: Adobe Illustrator 19.0.0, SVG Export Plug-In . SVG Version: 6.00 Build 0)  -->
<svg version="1.1" id="Layer_1" xmlns="http://www.w3.org/2000/svg" xmlns:xlink="http://www.w3.org/1999/xlink" x="0px" y="0px"
	 viewBox="0 0 1223.939 510" enable-background="new 0 0 1223.939 510" xml:space="preserve">
<g id="XMLID_41_">
	<g id="XMLID_56_">
		<g id="XMLID_115_">
			<path id="XMLID_130_" fill="#3CB66E" d="M514.996,315.129c-8.55,0-16.699-1.736-24.447-5.209
				c-7.748-3.474-14.562-8.149-20.44-14.027c-5.878-5.878-10.554-12.734-14.027-20.574c-3.473-7.836-5.21-16.207-5.21-25.116
				c0-8.725,1.691-16.966,5.076-24.715c3.382-7.749,7.97-14.562,13.761-20.44c5.786-5.878,12.599-10.508,20.439-13.894
				c7.836-3.382,16.298-5.076,25.383-5.076c8.726,0,17.008,1.603,24.848,4.81c7.836,3.206,14.695,7.66,20.574,13.359
				c5.878,5.703,10.508,12.47,13.894,20.306c3.381,7.84,5.076,16.391,5.076,25.65v105.004c0,2.313-0.802,4.275-2.405,5.878
				c-1.604,1.603-3.565,2.405-5.878,2.405c-2.318,0-4.275-0.801-5.878-2.405c-1.604-1.604-2.405-3.565-2.405-5.878v-64.391
				c-5.878,6.412-12.917,11.981-21.108,16.698C534.054,312.236,524.97,314.774,514.996,315.129z M563.357,250.203
				c0-6.588-1.248-12.779-3.741-18.569c-2.496-5.786-5.924-10.863-10.286-15.23c-4.367-4.362-9.443-7.79-15.23-10.286
				c-5.79-2.492-11.982-3.741-18.569-3.741c-6.592,0-12.825,1.249-18.703,3.741c-5.878,2.496-11,5.924-15.364,10.286
				c-4.366,4.367-7.794,9.444-10.286,15.23c-2.496,5.79-3.741,11.981-3.741,18.569c0,6.592,1.245,12.825,3.741,18.703
				c2.492,5.878,5.92,11,10.286,15.363c4.363,4.367,9.485,7.795,15.364,10.287c5.878,2.496,12.111,3.74,18.703,3.74
				c6.413,0,12.466-1.202,18.168-3.607c5.699-2.405,10.688-5.745,14.963-10.019c4.275-4.275,7.702-9.352,10.286-15.23
				C561.529,263.562,562.998,257.15,563.357,250.203z"/>
			<path id="XMLID_127_" fill="#3CB66E" d="M603.969,156.688c0-3.027,1.069-5.611,3.206-7.749c2.137-2.137,4.717-3.206,7.748-3.206
				c3.027,0,5.611,1.068,7.749,3.206c2.137,2.138,3.206,4.722,3.206,7.749c0,3.03-1.068,5.611-3.206,7.748
				c-2.138,2.137-4.722,3.206-7.749,3.206c-3.031,0-5.611-1.069-7.748-3.206C605.038,162.299,603.969,159.718,603.969,156.688z
				 M606.641,193.559c0-2.312,0.802-4.275,2.405-5.878c1.603-1.603,3.561-2.404,5.878-2.404c2.313,0,4.275,0.801,5.878,2.404
				c1.604,1.604,2.405,3.566,2.405,5.878v113.288c0,2.316-0.801,4.275-2.405,5.878c-1.603,1.603-3.565,2.404-5.878,2.404
				c-2.317,0-4.275-0.801-5.878-2.404c-1.604-1.603-2.405-3.562-2.405-5.878V193.559z"/>
			<path id="XMLID_124_" fill="#3CB66E" d="M665.421,258.486c0.889,5.703,2.76,11,5.611,15.897
				c2.847,4.901,6.366,9.13,10.554,12.691c4.183,3.566,8.951,6.371,14.295,8.416c5.344,2.05,10.955,3.073,16.833,3.073
				c6.588,0,12.733-1.202,18.436-3.607c5.699-2.405,10.775-5.745,15.23-10.019c1.603-1.604,3.561-2.405,5.878-2.405
				c2.313,0,4.275,0.802,5.878,2.405c1.603,1.603,2.405,3.565,2.405,5.878c0,2.316-0.802,4.275-2.405,5.878
				c-5.878,6.592-12.516,11.268-19.905,14.027c-7.394,2.764-15.898,4.141-25.516,4.141c-8.909,0-17.234-1.603-24.982-4.809
				c-7.748-3.206-14.562-7.656-20.44-13.359c-5.878-5.698-10.512-12.466-13.894-20.306c-3.386-7.835-5.076-16.386-5.076-25.649
				c0-8.905,1.645-17.234,4.943-24.982c3.294-7.749,7.836-14.516,13.626-20.306c5.786-5.786,12.646-10.42,20.574-13.894
				c7.924-3.473,16.52-5.386,25.784-5.745c8.549,0,16.607,1.695,24.18,5.077c7.569,3.385,14.295,7.927,20.173,13.626
				c5.878,5.703,10.554,12.383,14.027,20.039c3.474,7.661,5.386,15.856,5.745,24.581c0.355,3.031-0.4,5.344-2.271,6.947
				c-1.87,1.603-3.874,2.405-6.012,2.405H665.421z M712.713,202.644c-5.878,0-11.447,1.027-16.699,3.073
				c-5.256,2.05-9.978,4.809-14.161,8.283c-4.188,3.473-7.661,7.615-10.42,12.424c-2.764,4.81-4.676,9.978-5.745,15.497h94.317
				c-1.069-5.519-3.031-10.687-5.878-15.497c-2.851-4.809-6.371-8.951-10.554-12.424c-4.188-3.474-8.909-6.233-14.161-8.283
				C724.156,203.671,718.591,202.644,712.713,202.644z"/>
			<path id="XMLID_122_" fill="#3CB66E" d="M873.024,226.958c0-2.312,0.801-4.275,2.405-5.878c1.603-1.603,3.561-2.404,5.878-2.404
				c2.313,0,4.275,0.801,5.878,2.404c1.603,1.604,2.405,3.566,2.405,5.878v44.353c0,3.741,0.709,7.26,2.137,10.554
				c1.423,3.297,3.34,6.191,5.745,8.684c2.405,2.496,5.252,4.454,8.55,5.878c3.294,1.428,6.813,2.137,10.554,2.137
				c3.741,0,7.256-0.709,10.554-2.137c3.294-1.423,6.187-3.382,8.684-5.878c2.492-2.493,4.45-5.386,5.878-8.684
				c1.423-3.294,2.137-6.814,2.137-10.554v-77.484c0-2.312,0.802-4.275,2.405-5.878c1.604-1.603,3.561-2.405,5.878-2.405
				c2.313,0,4.275,0.802,5.878,2.405c1.604,1.604,2.405,3.566,2.405,5.878v77.484c0,6.058-1.161,11.756-3.473,17.1
				c-2.318,5.344-5.436,9.977-9.352,13.894c-3.92,3.92-8.55,7.039-13.894,9.352c-5.344,2.317-11.046,3.473-17.1,3.473
				c-7.481,0-14.253-1.645-20.306-4.942c-6.058-3.295-11.134-7.703-15.229-13.226c-3.92,5.523-8.909,9.931-14.963,13.226
				c-6.058,3.297-12.825,4.942-20.306,4.942c-6.058,0-11.756-1.156-17.1-3.473c-5.344-2.313-9.978-5.431-13.894-9.352
				c-3.92-3.916-6.993-8.55-9.218-13.894c-2.229-5.344-3.34-11.042-3.34-17.1v-77.484c0-2.312,0.802-4.275,2.405-5.878
				c1.604-1.603,3.561-2.405,5.878-2.405c2.313,0,4.275,0.802,5.878,2.405c1.603,1.604,2.405,3.566,2.405,5.878v77.484
				c0,3.741,0.71,7.26,2.138,10.554c1.423,3.297,3.339,6.191,5.744,8.684c2.405,2.496,5.252,4.454,8.55,5.878
				c3.294,1.428,6.814,2.137,10.554,2.137c7.302,0,13.581-2.579,18.837-7.748c5.252-5.165,8.057-11.665,8.416-19.505V226.958z"/>
			<path id="XMLID_119_" fill="#3CB66E" d="M981.771,156.688c0-3.027,1.069-5.611,3.206-7.749c2.137-2.137,4.717-3.206,7.748-3.206
				c3.027,0,5.611,1.068,7.749,3.206c2.137,2.138,3.206,4.722,3.206,7.749c0,3.03-1.068,5.611-3.206,7.748
				c-2.138,2.137-4.722,3.206-7.749,3.206c-3.031,0-5.611-1.069-7.748-3.206C982.84,162.299,981.771,159.718,981.771,156.688z
				 M984.443,193.559c0-2.312,0.802-4.275,2.405-5.878c1.603-1.603,3.561-2.404,5.878-2.404c2.313,0,4.275,0.801,5.878,2.404
				c1.604,1.604,2.405,3.566,2.405,5.878v113.288c0,2.316-0.801,4.275-2.405,5.878c-1.603,1.603-3.565,2.404-5.878,2.404
				c-2.317,0-4.275-0.801-5.878-2.404c-1.604-1.603-2.405-3.562-2.405-5.878V193.559z"/>
			<path id="XMLID_116_" fill="#3CB66E" d="M1043.223,258.486c0.889,5.703,2.76,11,5.611,15.897
				c2.847,4.901,6.366,9.13,10.554,12.691c4.183,3.566,8.951,6.371,14.295,8.416c5.344,2.05,10.955,3.073,16.833,3.073
				c6.588,0,12.733-1.202,18.436-3.607c5.699-2.405,10.775-5.745,15.23-10.019c1.603-1.604,3.561-2.405,5.877-2.405
				c2.313,0,4.275,0.802,5.878,2.405c1.604,1.603,2.405,3.565,2.405,5.878c0,2.316-0.802,4.275-2.405,5.878
				c-5.878,6.592-12.516,11.268-19.905,14.027c-7.394,2.764-15.898,4.141-25.516,4.141c-8.909,0-17.234-1.603-24.982-4.809
				c-7.748-3.206-14.562-7.656-20.44-13.359c-5.878-5.698-10.512-12.466-13.894-20.306c-3.386-7.835-5.076-16.386-5.076-25.649
				c0-8.905,1.645-17.234,4.943-24.982c3.294-7.749,7.836-14.516,13.626-20.306c5.786-5.786,12.646-10.42,20.574-13.894
				c7.924-3.473,16.52-5.386,25.784-5.745c8.549,0,16.607,1.695,24.18,5.077c7.569,3.385,14.295,7.927,20.173,13.626
				c5.878,5.703,10.554,12.383,14.027,20.039c3.474,7.661,5.385,15.856,5.745,24.581c0.355,3.031-0.4,5.344-2.271,6.947
				c-1.87,1.603-3.874,2.405-6.012,2.405H1043.223z M1090.515,202.644c-5.878,0-11.447,1.027-16.699,3.073
				c-5.256,2.05-9.978,4.809-14.161,8.283c-4.188,3.473-7.661,7.615-10.42,12.424c-2.764,4.81-4.676,9.978-5.745,15.497h94.317
				c-1.069-5.519-3.031-10.687-5.878-15.497c-2.851-4.809-6.371-8.951-10.554-12.424c-4.188-3.474-8.909-6.233-14.161-8.283
				C1101.958,203.671,1096.393,202.644,1090.515,202.644z"/>
		</g>
	</g>
	<path id="XMLID_300_" fill="#3CB66E" d="M214.912,96.356c-83.945,0-152.239,68.294-152.239,152.239s68.294,152.239,152.239,152.239
		c83.944,0,152.238-68.294,152.238-152.239S298.857,96.356,214.912,96.356z M245.954,174.755c-1.183,1.358-2.526,3.072-4.577,2.403
		c-2.268-0.739-1.991-3.051-2.196-4.938c-0.069-0.638-0.011-1.29-0.011-2.873c0.299-5.241,1.627-11.214,3.779-16.992
		c1.417-3.804,4.921-5.528,8.508-4.398c3.595,1.132,5.666,4.649,4.437,8.475C253.743,163.135,250.624,169.396,245.954,174.755z
		 M242.28,342.733c-4.066,1.157-7.59-1.132-8.777-5.822c-1.244-4.917-1.953-9.919-2.089-14.994
		c-0.053-2.276,0.096-4.542,0.827-6.701c0.886-2.613,2.51-3.031,4.654-1.254c1.597,1.324,2.696,3.064,3.726,4.836
		c2.665,4.587,4.603,9.485,6.026,14.58C247.929,337.965,246.171,341.625,242.28,342.733z M274.968,199.195
		c-4.193,4.06-8.86,7.48-13.925,10.368c-0.41,0.105-0.826,0.191-1.228,0.319c-1.886,0.598-3.974,2.076-5.649,0.188
		c-1.492-1.681-0.286-3.763,0.556-5.422c3.522-6.933,7.864-13.249,14.34-17.826c4.128-0.575,6.732,0.52,8.212,3.452
		C278.798,193.295,278.031,196.23,274.968,199.195z M294.309,229.648c4.138,1.42,5.979,3.85,5.621,7.417
		c-0.351,3.497-2.686,5.548-7.1,6.16c-5.974,0.828-11.952,1.092-17.929,0.008c-2.034-0.724-5.057-0.529-5.287-3.306
		c-0.215-2.581,2.481-3.574,4.433-4.553C280.419,232.177,287.132,230.068,294.309,229.648z M247.907,292.698
		c1.159-1.128,2.671-0.647,3.972-0.192c4.747,1.664,8.674,4.699,12.598,7.732c1.366,1.176,2.777,2.299,4.084,3.533
		c3.56,3.362,3.941,6.01,1.561,10.25c-4.545,3.367-7.383,3.168-11.252-0.922c-3.933-4.157-7.498-8.599-10.064-13.761
		c-0.43-0.865-0.882-1.744-1.126-2.669C247.331,295.343,246.73,293.843,247.907,292.698z M271.344,289.472
		c-0.825-1.13-1.644-2.476-0.915-3.891c0.84-1.631,2.572-1.244,4.607-1.366c7.172,1.009,14.211,3.889,20.651,8.137
		c2.683,1.77,3.156,5.634,1.593,8.458c-1.632,2.948-5.244,4.517-8.311,2.974C282.083,300.319,275.957,295.784,271.344,289.472z
		 M293.938,272.483c-3.175-1.557-6.384-3.052-8.995-5.492c-2.627-2.455-2.377-3.714,0.911-5.362
		c7.905-1.566,15.608-0.329,23.145,1.974c3.414,1.043,4.956,4.747,3.959,8.118c-1,3.383-4.155,5.353-7.717,4.811
		c-0.94-0.143-1.827-0.682-2.827-0.381C299.849,274.335,296.709,273.842,293.938,272.483z M309.44,211.847
		c-3.766,1.785-7.729,3.153-11.606,4.703c-4.246,0.325-8.443,1.822-12.758,0.538c-1.471-1.85-0.621-3.488,0.616-4.926
		c5.094-5.921,11.607-9.885,18.709-12.821c3.311-1.369,6.927,0.581,8.276,3.756C314.1,206.45,312.895,210.209,309.44,211.847z
		 M208.442,242.839h-66.333c1.704-51.885,27.443-101.407,66.333-128.298V242.839z M191.169,111.33
		c-16.472,13.512-30.446,30.854-41.043,51.167c-12.957,24.839-20.136,52.466-20.967,80.342H75.742
		C78.445,176.704,127.471,122.316,191.169,111.33z M75.797,255.78h53.43c2.805,65.06,42.049,109.7,65.39,130.63
		C129.71,376.895,79.201,322.456,75.797,255.78z M142.185,255.78h66.257v125.505C188.668,364.729,145.269,321.137,142.185,255.78z"
		/>
</g>
</svg>
